<svg width="512" height="512" viewBox="0 0 512 512" fill="none" xmlns="http://www.w3.org/2000/svg">
  <path d="
    M256 48
    L448 256
    L256 464
    L64 256
    Z
    M256 112
    L384 256
    L256 400
    L128 256
    Z
    M256 176
    L320 256
    L256 336
    L192 256
    Z
    M256 208
    L288 256
    L256 304
    L224 256
    Z
    M256 240
    A16 16 0 0 1 272 256
    A16 16 0 0 1 256 272
    A16 16 0 0 1 240 256
    A16 16 0 0 1 256 240
    Z
  " 
  fill="url(#gradient)"
  >
    <defs>
      <linearGradient id="gradient" x1="0%" y1="0%" x2="100%" y2="100%">
        <stop offset="0%" style="stop-color:#8b5cf6"/>
        <stop offset="100%" style="stop-color:#6366f1"/>
      </linearGradient>
    </defs>
  </path>
</svg>
