<svg width="512" height="512" viewBox="0 0 512 512" fill="none" xmlns="http://www.w3.org/2000/svg">
  <path d="
    M256 64
    L384 192
    L384 320
    L256 448
    L128 320
    L128 192
    Z
    M256 128
    L346.912 218.912
    L346.912 293.088
    L256 384
    L165.088 293.088
    L165.088 218.912
    Z
    M256 192
    L309.824 245.824
    L309.824 266.176
    L256 320
    L202.176 266.176
    L202.176 245.824
    Z
    M256 224
    A32 32 0 0 1 288 256
    A32 32 0 0 1 256 288
    A32 32 0 0 1 224 256
    A32 32 0 0 1 256 224
  " 
  fill="#8b5cf6"
  stroke="#6366f1"
  stroke-width="2"
  />
</svg>
